<svg width="211" height="121" viewBox="0 0 211 121" fill="none" xmlns="http://www.w3.org/2000/svg">
<g clip-path="url(#clip0_249_570)">
<path opacity="0.1" d="M211 79.4144C211.011 85.5186 209.345 91.5085 206.182 96.7297C206.182 103.115 203.205 108.903 198.377 113.121C197.168 114.177 195.867 115.122 194.489 115.945C194.433 115.98 194.376 116.013 194.319 116.046C194.216 116.107 194.112 116.168 194.007 116.231L193.91 116.288C189.339 118.835 184.188 120.158 178.955 120.128H40.0548C30.4768 120.128 21.8062 116.793 15.5242 111.404C9.24214 106.014 5.37073 98.5556 5.37073 90.3296C1.85298 84.9128 -0.0131319 78.5896 -0.000177146 72.1308C-0.000177146 53.8454 14.6149 39.0219 32.6458 39.0219C33.284 39.0219 33.9166 39.044 34.5455 39.0791C45.8591 19.7866 71.3783 6.3335 101.025 6.3335C119.252 6.3335 135.912 11.4148 148.674 19.8106C153.508 17.0779 158.968 15.6449 164.521 15.6514C182.548 15.6514 197.167 30.4749 197.167 48.7604C197.164 49.9173 197.103 51.0734 196.982 52.2242C201.328 55.3003 204.87 59.3763 207.309 64.1086C209.749 68.8408 211.015 74.0903 211 79.4144Z" fill="#6C63FF"/>
<path opacity="0.1" d="M76.174 89.8703C116.105 89.8703 148.475 89.0033 148.475 87.9337C148.475 86.8641 116.105 85.9971 76.174 85.9971C36.2434 85.9971 3.87329 86.8641 3.87329 87.9337C3.87329 89.0033 36.2434 89.8703 76.174 89.8703Z" fill="#6C63FF"/>
<g opacity="0.7">
<path d="M49.2457 73.6395H26.1907V86.3659H49.2457V73.6395Z" fill="#65617D"/>
<path opacity="0.1" d="M41.3146 75.8529H34.3059V77.3284H41.3146V75.8529Z" fill="black"/>
<path opacity="0.1" d="M40.4387 76.0372H35.1821V77.1439H40.4387V76.0372Z" fill="black"/>
<path d="M72.6696 73.6395H49.6145V86.3659H72.6696V73.6395Z" fill="#65617D"/>
<path opacity="0.1" d="M64.7387 75.8529H57.73V77.3284H64.7387V75.8529Z" fill="black"/>
<path opacity="0.1" d="M63.8625 76.0372H58.606V77.1439H63.8625V76.0372Z" fill="black"/>
<path d="M49.2457 60.5443H26.1907V73.2707H49.2457V60.5443Z" fill="#65617D"/>
<path opacity="0.1" d="M41.3146 62.7576H34.3059V64.2331H41.3146V62.7576Z" fill="black"/>
<path opacity="0.1" d="M40.4387 62.942H35.1821V64.0487H40.4387V62.942Z" fill="black"/>
<path d="M72.6696 60.5443H49.6145V73.2707H72.6696V60.5443Z" fill="#65617D"/>
<path opacity="0.1" d="M64.7387 62.7576H57.73V64.2331H64.7387V62.7576Z" fill="black"/>
<path opacity="0.1" d="M63.8625 62.942H58.606V64.0487H63.8625V62.942Z" fill="black"/>
<path d="M49.2457 47.2646H26.1907V59.991H49.2457V47.2646Z" fill="#65617D"/>
<path opacity="0.1" d="M41.3146 49.4779H34.3059V50.9534H41.3146V49.4779Z" fill="black"/>
<path opacity="0.1" d="M40.4387 49.6624H35.1821V50.769H40.4387V49.6624Z" fill="black"/>
<path d="M72.6696 47.2646H49.6145V59.991H72.6696V47.2646Z" fill="#65617D"/>
<path opacity="0.1" d="M64.7387 49.4779H57.73V50.9534H64.7387V49.4779Z" fill="black"/>
<path opacity="0.1" d="M63.8625 49.6624H58.606V50.769H63.8625V49.6624Z" fill="black"/>
<path d="M72.6696 33.985H49.6145V46.7114H72.6696V33.985Z" fill="#65617D"/>
<path opacity="0.1" d="M64.7387 36.1982H57.73V37.6738H64.7387V36.1982Z" fill="black"/>
<path opacity="0.1" d="M63.8625 36.3826H58.606V37.4892H63.8625V36.3826Z" fill="black"/>
</g>
<g opacity="0.7">
<path d="M96.0936 73.4552H73.0386V86.1816H96.0936V73.4552Z" fill="#65617D"/>
<path opacity="0.1" d="M88.1625 75.6685H81.1538V77.144H88.1625V75.6685Z" fill="black"/>
<path opacity="0.1" d="M87.2866 75.8529H82.03V76.9595H87.2866V75.8529Z" fill="black"/>
<path d="M119.517 73.4552H96.4624V86.1816H119.517V73.4552Z" fill="#65617D"/>
<path opacity="0.1" d="M111.587 75.6685H104.578V77.144H111.587V75.6685Z" fill="black"/>
<path opacity="0.1" d="M110.71 75.8529H105.454V76.9595H110.71V75.8529Z" fill="black"/>
<path d="M96.0936 60.3599H73.0386V73.0863H96.0936V60.3599Z" fill="#65617D"/>
<path opacity="0.1" d="M88.1625 62.5732H81.1538V64.0488H88.1625V62.5732Z" fill="black"/>
<path opacity="0.1" d="M87.2866 62.7576H82.03V63.8642H87.2866V62.7576Z" fill="black"/>
<path d="M119.517 60.3599H96.4624V73.0863H119.517V60.3599Z" fill="#65617D"/>
<path opacity="0.1" d="M111.587 62.5732H104.578V64.0488H111.587V62.5732Z" fill="black"/>
<path opacity="0.1" d="M110.71 62.7576H105.454V63.8642H110.71V62.7576Z" fill="black"/>
<path d="M96.0936 47.0802H73.0386V59.8066H96.0936V47.0802Z" fill="#65617D"/>
<path opacity="0.1" d="M88.1625 49.2935H81.1538V50.769H88.1625V49.2935Z" fill="black"/>
<path opacity="0.1" d="M87.2866 49.4779H82.03V50.5845H87.2866V49.4779Z" fill="black"/>
<path d="M119.517 47.0802H96.4624V59.8066H119.517V47.0802Z" fill="#65617D"/>
<path opacity="0.1" d="M111.587 49.2935H104.578V50.769H111.587V49.2935Z" fill="black"/>
<path opacity="0.1" d="M110.71 49.4779H105.454V50.5845H110.71V49.4779Z" fill="black"/>
<path d="M119.517 33.8004H96.4624V46.5268H119.517V33.8004Z" fill="#65617D"/>
<path opacity="0.1" d="M111.587 36.0137H104.578V37.4892H111.587V36.0137Z" fill="black"/>
<path opacity="0.1" d="M110.71 36.1982H105.454V37.3049H110.71V36.1982Z" fill="black"/>
</g>
<path opacity="0.1" d="M161.992 0.0202209C161.992 0.0202209 146.464 -0.916739 148.29 9.96525C148.29 9.96525 147.921 11.889 149.67 12.7614C149.67 12.7614 149.697 11.9554 151.263 12.2302C151.821 12.3226 152.387 12.3498 152.951 12.3113C153.713 12.2587 154.436 11.9596 155.013 11.4592C155.013 11.4592 159.379 9.65539 161.076 2.52123C161.076 2.52123 162.332 0.964556 162.282 0.56432L159.661 1.68387C159.661 1.68387 160.557 3.57439 159.845 5.14582C159.845 5.14582 159.761 1.75212 159.257 1.82589C159.156 1.84249 157.896 2.48066 157.896 2.48066C157.896 2.48066 159.436 5.77292 158.274 8.16696C158.274 8.16696 158.715 4.10927 157.414 2.71859L155.57 3.79572C155.57 3.79572 157.37 7.1968 156.149 9.97263C156.149 9.97263 156.463 5.71574 155.181 4.05762L153.51 5.36162C153.51 5.36162 155.201 8.71475 154.17 11.0166C154.17 11.0166 154.035 6.06065 153.148 5.68623C153.148 5.68623 151.686 6.97732 151.463 7.50482C151.463 7.50482 152.621 9.93943 151.901 11.2231C151.901 11.2231 151.461 7.92165 151.099 7.90321C151.099 7.90321 149.642 10.0907 149.491 11.592C149.491 11.592 149.554 9.36029 150.747 7.69479C150.747 7.69479 149.338 7.93641 148.515 8.85123C148.515 8.85123 148.742 7.30378 151.107 7.16914C151.107 7.16914 152.311 5.50917 152.632 5.40773C152.632 5.40773 150.282 5.21222 148.856 5.84301C148.856 5.84301 150.111 4.38408 153.063 5.04807L154.714 3.69981C154.714 3.69981 151.619 3.27744 150.306 3.74407C150.306 3.74407 151.817 2.45299 155.159 3.39548L156.959 2.32942C156.959 2.32942 154.32 1.76134 152.748 1.96053C152.748 1.96053 154.408 1.066 157.486 2.03616L158.777 1.45886C158.777 1.45886 156.845 1.07891 156.278 1.01804C155.712 0.957178 155.683 0.802248 155.683 0.802248C156.907 0.598045 158.164 0.737882 159.314 1.20617C159.314 1.20617 162.04 0.191751 161.992 0.0202209Z" fill="#6C63FF"/>
<path opacity="0.1" d="M142.84 2.78872C142.84 2.78872 135.831 2.36451 136.652 7.28354C136.652 7.28354 136.488 8.15225 137.274 8.54696C137.274 8.54696 137.287 8.17807 137.995 8.30534C138.246 8.34767 138.502 8.36006 138.757 8.34223C139.101 8.31883 139.428 8.18345 139.688 7.95674C139.688 7.95674 141.661 7.14336 142.429 3.91934C142.429 3.91934 142.995 3.21478 142.973 3.03403L141.789 3.53939C141.789 3.53939 142.194 4.3952 141.875 5.10529C141.875 5.10529 141.837 3.57075 141.61 3.60763C141.564 3.60763 140.994 3.90274 140.994 3.90274C140.994 3.90274 141.691 5.39118 141.165 6.47384C141.165 6.47384 141.365 4.6405 140.776 4.01156L139.942 4.49848C139.942 4.49848 140.758 6.03487 140.204 7.28907C140.204 7.28907 140.346 5.36535 139.767 4.61652L139.013 5.20489C139.013 5.20489 139.776 6.72099 139.312 7.76124C139.312 7.76124 139.251 5.52028 138.849 5.35244C138.849 5.35244 138.188 5.93528 138.087 6.17505C138.087 6.17505 138.611 7.28169 138.286 7.85346C138.286 7.85346 138.087 6.36133 137.917 6.3558C137.917 6.3558 137.261 7.3444 137.191 8.01577C137.224 7.38921 137.419 6.78207 137.759 6.25436C137.379 6.32633 137.028 6.50775 136.75 6.77633C136.75 6.77633 136.853 6.07914 137.921 6.01643C137.921 6.01643 138.474 5.2676 138.611 5.22149C138.611 5.22149 137.548 5.13296 136.905 5.41884C136.905 5.41884 137.471 4.75855 138.806 5.05918L139.544 4.45053C139.544 4.45053 138.146 4.26609 137.552 4.47082C137.552 4.47082 138.235 3.88799 139.745 4.3122L140.557 3.82712C140.557 3.82712 139.365 3.5689 138.653 3.66297C138.653 3.66297 139.404 3.2572 140.795 3.69617L141.376 3.43611C141.376 3.43611 140.501 3.26273 140.245 3.23691C139.989 3.21109 139.976 3.13916 139.976 3.13916C140.529 3.04705 141.098 3.11091 141.617 3.3236C141.617 3.3236 142.862 2.86619 142.84 2.78872Z" fill="#6C63FF"/>
<path d="M41.3497 118.92C45.4456 118.92 48.7661 118.358 48.7661 117.666C48.7661 116.973 45.4456 116.411 41.3497 116.411C37.2538 116.411 33.9333 116.973 33.9333 117.666C33.9333 118.358 37.2538 118.92 41.3497 118.92Z" fill="#6C63FF"/>
<path d="M44.417 115.615C44.7557 115.339 45.0021 114.966 45.1234 114.547C45.2157 114.124 45.0349 113.625 44.6291 113.46C44.1754 113.287 43.6903 113.602 43.3233 113.92C42.9563 114.237 42.5339 114.6 42.0544 114.532C42.3015 114.308 42.4864 114.023 42.5911 113.706C42.6958 113.389 42.7168 113.05 42.6519 112.723C42.631 112.587 42.5736 112.459 42.486 112.354C42.2333 112.084 41.7777 112.199 41.4752 112.411C40.5161 113.086 40.2487 114.39 40.2432 115.561C40.1472 115.139 40.2284 114.698 40.2266 114.27C40.2247 113.842 40.1048 113.348 39.7378 113.121C39.5114 112.999 39.2569 112.939 39 112.948C38.5703 112.931 38.0889 112.975 37.7956 113.291C37.4267 113.682 37.5245 114.338 37.8417 114.766C38.159 115.194 38.6441 115.469 39.0904 115.766C39.4475 115.979 39.752 116.269 39.9812 116.616C40.0089 116.665 40.0311 116.716 40.0476 116.769H42.7515C43.3563 116.461 43.9165 116.073 44.417 115.615Z" fill="#6C63FF"/>
<path d="M132.31 63.0804C132.295 62.9407 132.245 62.807 132.165 62.6917C132.084 62.5763 131.977 62.4829 131.851 62.4201C131.745 62.375 131.631 62.3516 131.516 62.3514C131.401 62.3512 131.287 62.3742 131.181 62.4189C131.075 62.4637 130.979 62.5293 130.899 62.6119C130.819 62.6945 130.756 62.7923 130.715 62.8997L126.618 71.5186L125.696 105.456H127.172L127.725 71.5942L132.233 63.6153C132.314 63.4496 132.341 63.2624 132.31 63.0804Z" fill="#3F3D56"/>
<path opacity="0.1" d="M198.377 113.121C197.168 114.177 195.867 115.122 194.489 115.945C194.467 115.975 194.443 116.003 194.417 116.03C194.271 116.154 194.097 116.241 193.91 116.284C189.339 118.831 184.188 120.154 178.955 120.124H77.5461C65.9263 118.929 58.8364 117.345 58.8364 115.605C58.8364 114.257 63.0933 113.001 70.423 111.95C71.1829 111.839 71.9754 111.732 72.8004 111.629C73.3082 111.565 73.8278 111.503 74.3589 111.444L75.2609 111.339C75.9298 111.263 76.6165 111.189 77.3211 111.116H77.3782L78.116 111.042C78.7394 110.978 79.3757 110.917 80.025 110.858L80.4971 110.815L81.7015 110.708C82.4835 110.638 83.2828 110.571 84.0992 110.507C84.7768 110.455 85.4653 110.402 86.165 110.349C93.2586 109.823 101.437 109.427 110.336 109.17L112.878 109.084L113.733 109.065L115.541 109.025L116.266 109.01L117.027 108.995L117.57 108.986L120.115 108.945L121.423 108.927H121.69C124.783 108.89 127.933 108.871 131.141 108.87C137.482 108.87 143.631 108.945 149.491 109.089C152.855 109.17 156.117 109.274 159.275 109.399H159.305C168.413 109.757 176.565 110.284 183.312 110.939L183.435 110.952C185.167 111.12 186.807 111.299 188.345 111.483C189.793 111.657 191.152 111.839 192.414 112.025C192.851 112.09 193.275 112.156 193.688 112.221L193.793 112.239C195.542 112.522 197.076 112.809 198.377 113.121Z" fill="#6C63FF"/>
<path d="M194.489 115.945C194.467 115.975 194.443 116.004 194.417 116.03C194.271 116.154 194.097 116.241 193.91 116.284C193.537 116.389 193.153 116.451 192.766 116.469H192.65C192.429 116.476 192.208 116.469 191.988 116.446C191.827 116.423 191.665 116.413 191.503 116.415H191.481C191.245 116.448 191.013 116.506 190.789 116.587C190.29 116.723 189.776 116.797 189.258 116.804H189.074C188.495 116.804 187.908 116.784 187.327 116.788C187.233 116.788 187.143 116.788 187.045 116.788C186.049 116.814 185.058 116.972 184.062 116.989H183.743C182.768 116.965 181.77 116.756 180.993 116.166C180.837 116.063 180.71 115.92 180.625 115.753C180.558 115.577 180.536 115.387 180.56 115.2C180.578 114.866 180.643 114.503 180.894 114.277C181.051 114.157 181.232 114.069 181.425 114.021C181.763 113.912 182.102 113.807 182.439 113.702C182.777 113.597 183.162 113.484 183.526 113.377L183.596 113.355L183.799 113.294L183.93 113.25C184.088 113.199 184.241 113.13 184.383 113.044C184.572 112.925 184.731 112.765 184.85 112.577C184.87 112.544 184.892 112.509 184.911 112.474C184.929 112.439 184.911 112.416 184.898 112.387C184.867 112.156 184.843 111.92 184.802 111.695C184.283 111.575 183.81 111.307 183.439 110.924C183.121 110.609 182.853 110.246 182.644 109.849C182.185 108.986 181.949 108.021 181.606 107.105C181.08 105.71 180.315 104.423 179.544 103.146C178.839 101.97 178.131 100.789 177.33 99.6772C176.797 98.9394 176.224 98.2367 175.696 97.4971C174.204 95.4333 173.134 93.0955 172.546 90.6174C172.456 90.142 172.328 89.6745 172.164 89.2194C171.847 88.4447 171.266 87.814 170.816 87.1057C170.332 86.3423 170.001 85.4923 169.84 84.6028C169.748 84.0975 169.593 83.5515 169.09 83.4962L169.036 83.6013C167.992 85.6302 166.921 87.6959 165.347 89.3522C165.096 89.5957 164.865 89.8604 164.659 90.1434C164.494 90.4179 164.346 90.7025 164.217 90.9955C163.968 91.5218 163.637 92.0055 163.237 92.4287C163.118 92.549 162.989 92.6582 162.85 92.7551C162.666 92.8891 162.461 92.9919 162.243 93.0594C162.157 93.0856 162.07 93.1054 161.981 93.1185C161.981 93.1406 161.99 93.1609 161.992 93.183C161.994 93.2052 162.003 93.231 162.007 93.2549C162.278 94.7306 162.162 96.2514 161.67 97.6686C161.657 97.7129 161.642 97.7553 161.625 97.7996C161.549 98.0061 161.466 98.209 161.376 98.4082C161.151 98.897 160.884 99.3655 160.674 99.8616C160.639 99.9464 160.603 100.031 160.572 100.116C159.834 102.091 160.019 104.297 159.923 106.42C159.914 106.885 159.859 107.347 159.759 107.8C159.633 108.311 159.432 108.838 159.322 109.366C159.221 109.761 159.213 110.175 159.298 110.574L159.253 110.591C159.056 110.664 158.855 110.731 158.654 110.793V110.821C158.726 111.234 158.796 111.647 158.868 112.059C158.929 112.413 159.001 112.796 159.248 113.047C159.315 113.103 159.377 113.164 159.432 113.232C159.578 113.46 159.449 113.763 159.477 114.034C159.517 114.418 159.871 114.744 159.816 115.126C159.791 115.24 159.739 115.346 159.664 115.436C159.588 115.525 159.492 115.595 159.384 115.639C159.294 115.68 159.198 115.71 159.1 115.729L159.039 115.742C158.929 115.762 158.818 115.773 158.707 115.784C157.333 115.921 155.941 116.057 154.58 115.825C154.31 115.779 154.043 115.718 153.77 115.696C153.425 115.68 153.08 115.695 152.737 115.738C150.212 115.977 147.672 116.027 145.14 115.886C144.482 115.849 143.725 115.742 143.377 115.179C143.087 114.713 143.192 114.11 143.338 113.577C143.38 113.381 143.455 113.193 143.561 113.023C143.573 113.005 143.587 112.988 143.602 112.972C143.941 112.549 144.579 112.523 145.129 112.54L146.925 112.594C147.102 112.608 147.28 112.594 147.453 112.553C147.744 112.468 147.966 112.236 148.239 112.105C148.582 111.941 149.013 111.92 149.26 111.64L149.292 111.599C149.335 111.54 149.376 111.478 149.413 111.415C149.413 111.402 149.43 111.389 149.439 111.376C149.446 111.365 149.453 111.354 149.461 111.343C149.688 111.044 150.085 110.945 150.408 110.755C150.456 110.726 150.503 110.693 150.546 110.657L150.583 110.624C150.235 110.376 149.932 110.071 149.686 109.722C149.592 109.62 149.522 109.497 149.482 109.364C149.459 109.264 149.467 109.159 149.504 109.063C149.512 109.04 149.522 109.017 149.533 108.995L149.543 108.977C149.668 108.73 149.926 108.506 150.068 108.254C150.074 108.246 150.078 108.237 150.081 108.228C150.277 107.859 150.315 107.287 150.026 106.99C150.173 104.561 150.841 102.195 150.989 99.7583C151.048 98.7937 151.024 97.8254 151.068 96.8571C151.112 95.8888 151.215 94.95 151.324 94.0001C151.568 91.8292 152.158 89.7026 152.075 87.5225C152.068 87.3193 152.076 87.1158 152.101 86.9139C152.1 86.8991 152.1 86.8844 152.101 86.8696C152.16 86.4229 152.299 85.9905 152.512 85.5933C152.779 85.1444 153.082 84.7176 153.418 84.317C154.552 82.8414 155.915 81.3659 156.319 79.551C156.527 78.6141 156.988 77.7564 157.448 76.9135C157.719 76.4118 158.001 75.8972 158.434 75.5284C158.669 75.3658 158.887 75.1805 159.086 74.975C159.388 74.584 159.399 74.0436 159.578 73.5788C159.67 73.3372 159.812 73.1159 159.882 72.8669C159.882 72.8411 159.895 72.8171 159.901 72.7913C159.942 72.54 159.963 72.2859 159.965 72.0314C159.965 71.9576 159.976 71.8857 159.986 71.8137C160.093 71.0845 160.305 70.3746 160.615 69.7056C160.653 69.6207 160.69 69.534 160.727 69.4492C159.876 68.9527 159.125 68.3015 158.514 67.5292C158.306 67.2793 158.126 67.0078 157.977 66.7195C157.597 65.9651 157.51 65.1056 157.332 64.2793C156.904 62.3095 155.924 60.454 155.788 58.4399C155.747 57.8258 155.788 57.1913 155.574 56.6103C155.515 56.4532 155.445 56.3004 155.365 56.1529C155.332 56.0902 155.301 56.0275 155.268 55.9684L155.231 55.8984L155.137 55.7139L154.985 55.832C151.212 58.7865 147.251 61.4925 143.126 63.9326L142.772 64.1428C142.587 64.2318 142.427 64.3633 142.303 64.5265C142.289 64.5505 142.276 64.5744 142.263 64.5984C142.178 64.7736 142.156 64.9673 142.078 65.1517C141.912 65.5741 141.486 65.8434 141.051 65.9688C140.263 66.1713 139.428 66.0637 138.718 65.6682C138.627 65.6221 138.533 65.5741 138.452 65.5206C138.236 65.6402 138.009 65.7372 137.773 65.8102C137.036 66.0241 136.263 66.0149 135.499 66.0131C134.736 66.0112 133.956 66.0131 133.233 66.2639C132.749 66.4281 132.281 66.6992 131.779 66.725C131.721 66.7287 131.663 66.7287 131.606 66.725C131.32 66.6922 131.041 66.6105 130.783 66.4834L130.632 66.4152C130.554 66.378 130.477 66.3368 130.403 66.2916C130.322 66.2418 130.248 66.183 130.18 66.1164C130.082 66.0184 130.011 65.8971 129.973 65.7641C129.949 65.6679 129.949 65.567 129.973 65.4708C129.981 65.4277 130.003 65.3884 130.036 65.3602C130.069 65.3407 130.107 65.3311 130.145 65.3325C130.356 65.3302 130.568 65.3481 130.776 65.386C130.898 65.4027 131.021 65.4095 131.145 65.4063H131.211C131.32 65.3946 131.425 65.3607 131.52 65.3068C131.615 65.2529 131.698 65.18 131.764 65.0927C131.785 65.0657 131.801 65.0359 131.812 65.0042C131.835 64.9524 131.846 64.8965 131.846 64.84C131.847 64.8259 131.847 64.8117 131.846 64.7976C131.768 64.7626 131.691 64.7275 131.617 64.6851C131.578 64.6648 131.541 64.6427 131.504 64.6205L131.482 64.6058C131.416 64.5608 131.354 64.5095 131.298 64.4527C131.262 64.4172 131.23 64.3776 131.204 64.3347C131.155 64.2678 131.118 64.1929 131.095 64.1133C130.943 64.0816 130.786 64.086 130.636 64.1262C130.435 64.1816 130.232 64.2996 130.032 64.3402C129.932 64.3655 129.826 64.361 129.728 64.3273C129.44 64.224 129.339 63.8736 129.278 63.5729C129.267 63.5157 129.254 63.4567 129.245 63.3977C129.224 63.2843 129.224 63.168 129.245 63.0546C129.334 62.7969 129.504 62.575 129.73 62.422L130.335 61.9148L130.379 61.8779C130.379 61.8281 130.359 61.7783 130.352 61.7285C130.33 61.6145 130.33 61.4976 130.352 61.3836C130.441 61.1264 130.611 60.9051 130.837 60.7528L132.176 59.6259C132.427 59.4156 132.699 59.1943 133.026 59.1722C133.511 59.139 133.898 59.5411 134.262 59.8638C134.719 60.2696 135.274 60.6016 135.885 60.6422C136.175 60.6555 136.466 60.6155 136.742 60.5241L136.899 60.4725C136.866 60.4042 136.833 60.336 136.801 60.2678C136.748 60.1552 136.694 60.0409 136.643 59.9265C137.429 59.8767 138.142 59.4451 138.738 58.9287C139.334 58.4123 139.845 57.8018 140.446 57.2946C141.095 56.7412 141.84 56.3299 142.499 55.7969C144.03 54.5556 145.046 52.7315 146.684 51.6378C147.252 51.256 147.908 50.9517 148.296 50.3836C148.416 50.1991 148.506 50.0147 148.63 49.8303C149.022 49.2769 149.696 49.0224 150.251 48.6388C150.806 48.2551 151.289 47.6926 151.741 47.1522C152.062 46.7667 152.385 46.3812 152.691 45.9847C152.973 45.459 153.211 44.9094 153.506 44.3911C153.757 43.9533 154.049 43.5407 154.379 43.159C154.454 43.0115 154.532 42.8639 154.615 42.7201C154.698 42.5762 154.759 42.4785 154.836 42.3512C154.89 42.2682 154.945 42.1889 155.002 42.1077C154.834 41.8108 154.674 41.5544 154.598 41.4419L154.561 41.3921C154.398 41.2188 154.225 41.0561 154.041 40.9052C153.848 40.876 153.657 40.8353 153.469 40.7834C152.331 40.4715 151.327 39.7939 150.612 38.855C149.896 37.9161 149.51 36.768 149.511 35.5878C149.51 35.5823 149.51 35.5767 149.511 35.5712C149.512 34.7259 149.713 33.8928 150.098 33.1402C150.175 32.989 150.258 32.8433 150.349 32.7013C150.264 32.6747 150.182 32.6413 150.103 32.6017C149.969 32.5353 149.851 32.4388 149.76 32.3195C149.685 32.2132 149.636 32.0905 149.618 31.9617C149.587 31.6577 149.633 31.3507 149.751 31.069C149.801 30.9333 149.859 30.8004 149.923 30.6706C149.928 30.663 149.932 30.655 149.935 30.6466C150.76 28.9866 152.518 27.9667 154.273 27.8947C156.168 27.8191 158.012 28.7081 159.506 29.9808C159.952 30.3465 160.351 30.7659 160.694 31.2294C161.474 32.3139 161.826 33.7009 161.93 35.075C161.968 35.5 161.961 35.928 161.907 36.3513C161.888 36.5022 161.857 36.6514 161.815 36.7977C161.791 36.8844 161.76 36.9711 161.727 37.0578C161.694 37.1444 161.673 37.1832 161.644 37.2422V37.2514C161.616 37.3104 161.585 37.3658 161.553 37.4211L161.537 37.4451L161.513 37.4838C161.528 37.5189 161.544 37.5557 161.561 37.5908C161.577 37.6258 161.592 37.659 161.611 37.6922H161.633C162.002 37.7217 162.343 37.7734 162.719 37.8029C162.896 37.8113 163.072 37.8385 163.243 37.884C163.612 37.9947 163.89 38.264 164.2 38.4816C164.967 39.0239 165.912 39.2766 166.666 39.8373C167.773 40.6636 168.326 42.0284 168.997 43.2513C169.883 44.8891 171.325 46.2835 171.961 48.0357C172.249 48.8312 172.538 49.6255 172.828 50.4186C173.394 51.9735 173.961 53.5357 174.73 55.002C175.8 57.0419 177.247 58.8752 178.105 61.0184C178.19 61.2332 178.35 61.41 178.555 61.5164C179.724 63.1667 180.763 64.905 181.663 66.7158C182.137 67.673 182.585 68.6672 182.723 69.7277C182.831 70.6719 182.753 71.6282 182.493 72.5423C182.346 73.0853 182.165 73.6187 181.952 74.1395C181.87 74.3219 181.808 74.5131 181.768 74.7094C181.768 74.7297 181.768 74.75 181.768 74.7703C181.731 75.1244 181.866 75.4749 181.903 75.829C181.934 76.1141 181.901 76.4024 181.809 76.6737C181.794 76.7162 181.777 76.7586 181.761 76.801C181.646 77.0167 181.549 77.2412 181.471 77.4724C181.464 77.5003 181.459 77.5286 181.456 77.5572C181.395 77.9574 181.554 78.3614 181.641 78.7616C181.965 80.2076 181.906 81.7127 181.825 83.1882C181.783 83.9259 182.379 84.518 182.877 85.0621C183.799 86.0821 184.52 87.2754 185.215 88.4632C185.595 89.0662 185.914 89.705 186.169 90.3703C186.433 91.1302 186.538 91.9344 186.683 92.7219C187.154 95.1565 188.69 97.3071 189.107 99.7473C189.3 100.865 189.793 101.909 190.533 102.768C190.756 102.999 190.961 103.245 191.147 103.506C191.275 103.714 191.378 103.937 191.451 104.17C191.633 104.713 191.718 105.282 191.704 105.854C191.675 106.128 191.69 106.404 191.75 106.673C191.923 107.239 192.543 107.551 192.799 108.084C193.056 108.617 192.879 109.299 192.984 109.904C193.066 110.392 193.33 110.831 193.722 111.133C193.574 111.262 193.419 111.38 193.261 111.502C193.407 111.616 193.536 111.751 193.642 111.904C193.715 112.006 193.777 112.115 193.827 112.23C194.07 112.796 194.078 113.47 194.277 114.075C194.362 114.325 194.482 114.591 194.408 114.846C194.376 114.918 194.355 114.995 194.345 115.074C194.345 115.24 194.518 115.349 194.585 115.5C194.609 115.576 194.613 115.657 194.596 115.735C194.579 115.813 194.542 115.886 194.489 115.945Z" fill="url(#paint0_linear_249_570)"/>
<path d="M155.454 44.0129C156.583 43.7086 157.588 43.0723 158.573 42.4433L162.005 40.2577C161.074 40.1839 160.27 39.5199 159.792 38.7158C159.314 37.9116 159.117 36.9765 158.955 36.058C157.479 36.6334 156.201 37.6091 155.009 38.6402C154.537 39.0478 153.534 39.6638 153.388 40.3001C153.242 40.9364 154.172 41.4529 154.532 41.8789C154.655 42.0209 155.819 43.9115 155.454 44.0129Z" fill="#FBBEBE"/>
<path opacity="0.1" d="M155.454 44.0129C156.583 43.7086 157.588 43.0723 158.573 42.4433L162.005 40.2577C161.074 40.1839 160.27 39.5199 159.792 38.7158C159.314 37.9116 159.117 36.9765 158.955 36.058C157.479 36.6334 156.201 37.6091 155.009 38.6402C154.537 39.0478 153.534 39.6638 153.388 40.3001C153.242 40.9364 154.172 41.4529 154.532 41.8789C154.655 42.0209 155.819 43.9115 155.454 44.0129Z" fill="black"/>
<path d="M136.698 62.066C136.093 62.3759 135.449 62.6931 134.772 62.6489C134.164 62.6101 133.609 62.28 133.151 61.8761C132.782 61.5551 132.402 61.1549 131.917 61.1881C131.593 61.2102 131.32 61.4297 131.069 61.6381L129.732 62.7577C129.507 62.909 129.336 63.1289 129.247 63.3848C129.22 63.5584 129.231 63.7357 129.278 63.9049C129.339 64.2037 129.44 64.5523 129.728 64.6537C130.016 64.7552 130.329 64.5375 130.634 64.4545C130.819 64.407 131.015 64.4105 131.199 64.4648C131.383 64.519 131.549 64.6219 131.679 64.7626C131.788 64.8694 131.854 65.0125 131.864 65.1646C131.864 65.4985 131.495 65.718 131.156 65.7346C130.816 65.7512 130.492 65.6405 130.156 65.6608C130.136 65.6582 130.115 65.6597 130.095 65.6652C130.076 65.6708 130.057 65.6801 130.041 65.6929C130.025 65.7056 130.012 65.7214 130.002 65.7393C129.992 65.7572 129.986 65.7769 129.984 65.7973C129.963 65.9138 129.972 66.0336 130.01 66.1458C130.048 66.258 130.113 66.3589 130.2 66.4391C130.375 66.5991 130.579 66.7243 130.801 66.808C131.059 66.9356 131.338 67.0167 131.624 67.0478C132.19 67.0847 132.71 66.7711 133.247 66.5885C133.97 66.3451 134.748 66.3377 135.512 66.3395C136.276 66.3414 137.05 66.3524 137.782 66.1385C138.515 65.9245 139.21 65.4505 139.496 64.7441C139.53 64.6782 139.541 64.603 139.527 64.5302C139.499 64.4525 139.444 64.3872 139.372 64.3457C138.343 63.584 137.926 62.6581 136.768 62.1103L136.698 62.066Z" fill="#FBBEBE"/>
<path opacity="0.1" d="M136.698 62.066C136.093 62.3759 135.449 62.6931 134.772 62.6489C134.164 62.6101 133.609 62.28 133.151 61.8761C132.782 61.5551 132.402 61.1549 131.917 61.1881C131.593 61.2102 131.32 61.4297 131.069 61.6381L129.732 62.7577C129.507 62.909 129.336 63.1289 129.247 63.3848C129.22 63.5584 129.231 63.7357 129.278 63.9049C129.339 64.2037 129.44 64.5523 129.728 64.6537C130.016 64.7552 130.329 64.5375 130.634 64.4545C130.819 64.407 131.015 64.4105 131.199 64.4648C131.383 64.519 131.549 64.6219 131.679 64.7626C131.788 64.8694 131.854 65.0125 131.864 65.1646C131.864 65.4985 131.495 65.718 131.156 65.7346C130.816 65.7512 130.492 65.6405 130.156 65.6608C130.136 65.6582 130.115 65.6597 130.095 65.6652C130.076 65.6708 130.057 65.6801 130.041 65.6929C130.025 65.7056 130.012 65.7214 130.002 65.7393C129.992 65.7572 129.986 65.7769 129.984 65.7973C129.963 65.9138 129.972 66.0336 130.01 66.1458C130.048 66.258 130.113 66.3589 130.2 66.4391C130.375 66.5991 130.579 66.7243 130.801 66.808C131.059 66.9356 131.338 67.0167 131.624 67.0478C132.19 67.0847 132.71 66.7711 133.247 66.5885C133.97 66.3451 134.748 66.3377 135.512 66.3395C136.276 66.3414 137.05 66.3524 137.782 66.1385C138.515 65.9245 139.21 65.4505 139.496 64.7441C139.53 64.6782 139.541 64.603 139.527 64.5302C139.499 64.4525 139.444 64.3872 139.372 64.3457C138.343 63.584 137.926 62.6581 136.768 62.1103L136.698 62.066Z" fill="black"/>
<path d="M158.296 42.3953C158.01 42.2106 157.685 42.0941 157.347 42.0548C157.008 42.0155 156.666 42.0544 156.345 42.1685C155.702 42.3999 155.125 42.7842 154.664 43.288C154.204 43.7574 153.806 44.2836 153.478 44.8539C153.165 45.4072 152.925 45.9864 152.612 46.5379C152.058 47.5246 151.335 48.3952 150.609 49.2584C150.157 49.7951 149.699 50.3392 149.12 50.7339C148.541 51.1286 147.894 51.3702 147.501 51.918C147.377 52.0914 147.289 52.2869 147.167 52.4621C146.781 53.0265 146.127 53.329 145.557 53.7071C143.923 54.7953 142.906 56.6065 141.379 57.8404C140.721 58.3716 139.977 58.7884 139.33 59.3307C138.727 59.8342 138.223 60.4373 137.622 60.9537C137.021 61.4702 136.314 61.8962 135.531 61.9442C136.054 63.1117 136.68 64.2571 137.578 65.1664C138.476 66.0757 139.822 66.6566 141.049 66.3007C141.484 66.1753 141.91 65.9097 142.076 65.4891C142.129 65.273 142.201 65.0624 142.294 64.8602C142.417 64.6979 142.577 64.5671 142.761 64.4784C147.684 61.6044 152.378 58.3528 156.798 54.7529C157.984 53.7864 159.161 52.9214 160.378 51.9862C160.815 51.6767 161.218 51.3232 161.583 50.9312C162.09 50.325 162.408 49.5822 162.494 48.7962C162.581 48.0102 162.433 47.2162 162.07 46.5139C161.743 45.9766 161.369 45.4698 160.952 44.9996C160.193 44.0115 159.299 43.1348 158.296 42.3953Z" fill="#6C63FF"/>
<path opacity="0.1" d="M158.296 42.3953C158.01 42.2106 157.685 42.0941 157.347 42.0548C157.008 42.0155 156.666 42.0544 156.345 42.1685C155.702 42.3999 155.125 42.7842 154.664 43.288C154.204 43.7574 153.806 44.2836 153.478 44.8539C153.165 45.4072 152.925 45.9864 152.612 46.5379C152.058 47.5246 151.335 48.3952 150.609 49.2584C150.157 49.7951 149.699 50.3392 149.12 50.7339C148.541 51.1286 147.894 51.3702 147.501 51.918C147.377 52.0914 147.289 52.2869 147.167 52.4621C146.781 53.0265 146.127 53.329 145.557 53.7071C143.923 54.7953 142.906 56.6065 141.379 57.8404C140.721 58.3716 139.977 58.7884 139.33 59.3307C138.727 59.8342 138.223 60.4373 137.622 60.9537C137.021 61.4702 136.314 61.8962 135.531 61.9442C136.054 63.1117 136.68 64.2571 137.578 65.1664C138.476 66.0757 139.822 66.6566 141.049 66.3007C141.484 66.1753 141.91 65.9097 142.076 65.4891C142.129 65.273 142.201 65.0624 142.294 64.8602C142.417 64.6979 142.577 64.5671 142.761 64.4784C147.684 61.6044 152.378 58.3528 156.798 54.7529C157.984 53.7864 159.161 52.9214 160.378 51.9862C160.815 51.6767 161.218 51.3232 161.583 50.9312C162.09 50.325 162.408 49.5822 162.494 48.7962C162.581 48.0102 162.433 47.2162 162.07 46.5139C161.743 45.9766 161.369 45.4698 160.952 44.9996C160.193 44.0115 159.299 43.1348 158.296 42.3953Z" fill="black"/>
<path d="M150.371 110.817C150.048 111.002 149.651 111.105 149.425 111.404C149.351 111.5 149.301 111.612 149.222 111.705C148.976 111.992 148.541 112.005 148.2 112.169C147.927 112.298 147.706 112.538 147.416 112.614C147.243 112.655 147.064 112.669 146.887 112.654L145.094 112.601C144.526 112.584 143.86 112.614 143.53 113.077C143.423 113.246 143.346 113.434 143.305 113.63C143.167 114.159 143.054 114.759 143.344 115.224C143.69 115.777 144.45 115.889 145.105 115.926C147.634 116.066 150.171 116.017 152.693 115.779C153.034 115.735 153.378 115.721 153.722 115.736C153.995 115.759 154.262 115.819 154.532 115.865C155.891 116.096 157.282 115.961 158.654 115.825C158.886 115.814 159.114 115.765 159.331 115.681C159.439 115.637 159.534 115.568 159.609 115.479C159.684 115.39 159.736 115.284 159.761 115.17C159.818 114.79 159.462 114.467 159.423 114.086C159.395 113.816 159.525 113.516 159.377 113.287C159.322 113.22 159.26 113.158 159.193 113.103C158.945 112.846 158.873 112.472 158.813 112.121L158.49 110.227C158.481 110.094 158.426 109.967 158.335 109.869C158.267 109.82 158.189 109.788 158.106 109.775C156.701 109.458 155.26 109.748 153.864 109.925C153.146 110.03 152.419 110.066 151.693 110.033C151.38 110.013 151.258 109.976 151.024 110.181C150.789 110.386 150.664 110.646 150.371 110.817Z" fill="#3F3D56"/>
<path d="M184.31 113.097C184.063 113.235 183.799 113.339 183.524 113.405C182.8 113.616 182.077 113.837 181.355 114.067C181.163 114.115 180.983 114.201 180.826 114.322C180.575 114.543 180.51 114.905 180.492 115.244C180.468 115.431 180.49 115.621 180.556 115.797C180.643 115.963 180.77 116.103 180.925 116.207C181.751 116.832 182.83 117.026 183.867 117.026C184.904 117.026 185.933 116.85 186.969 116.823C188.222 116.789 189.507 116.967 190.712 116.616C190.941 116.531 191.18 116.473 191.424 116.443C191.585 116.44 191.747 116.451 191.907 116.474C192.553 116.538 193.205 116.478 193.829 116.299C194.016 116.257 194.191 116.171 194.338 116.046C194.41 115.983 194.462 115.9 194.486 115.807C194.511 115.714 194.507 115.616 194.474 115.526C194.408 115.377 194.238 115.268 194.236 115.104C194.245 115.025 194.266 114.948 194.297 114.875C194.373 114.622 194.251 114.359 194.166 114.11C193.928 113.398 193.967 112.579 193.541 111.961C193.115 111.343 192.333 111.088 191.59 110.991C190.985 110.905 190.371 110.923 189.773 111.042C189.1 111.186 188.471 111.487 187.81 111.679C187.044 111.899 186.243 111.975 185.45 111.902C184.922 111.858 185.103 111.941 184.924 112.383C184.797 112.678 184.583 112.928 184.31 113.097Z" fill="#3F3D56"/>
<path d="M154.838 41.4548C157.792 41.4548 160.187 39.06 160.187 36.106C160.187 33.1519 157.792 30.7572 154.838 30.7572C151.884 30.7572 149.489 33.1519 149.489 36.106C149.489 39.06 151.884 41.4548 154.838 41.4548Z" fill="#FBBEBE"/>
<path d="M193.615 111.184C191.955 112.61 189.714 113.234 187.528 113.256C186.606 113.265 185.649 113.165 184.863 112.688C184.808 112.385 184.786 112.059 184.73 111.756C183.777 111.557 183.037 110.78 182.576 109.921C182.115 109.061 181.881 108.106 181.538 107.195C181.014 105.808 180.247 104.53 179.479 103.261C178.775 102.091 178.068 100.918 177.266 99.8136C176.735 99.0759 176.159 98.3824 175.634 97.6464C174.144 95.5979 173.076 93.2748 172.489 90.8111C172.399 90.3386 172.272 89.8742 172.107 89.4222C171.79 88.6513 171.209 88.0242 170.761 87.3215C170.277 86.5631 169.946 85.7181 169.785 84.8334C169.695 84.3317 169.54 83.7894 169.036 83.7378C167.978 85.7943 166.899 87.884 165.298 89.5569C165.046 89.7984 164.816 90.0613 164.61 90.3426C164.444 90.6158 164.296 90.8992 164.167 91.191C163.919 91.7145 163.589 92.1951 163.189 92.6149C162.855 92.9729 162.414 93.2135 161.932 93.301C162.287 95.0733 162.076 96.9125 161.327 98.5576C161.103 99.0445 160.836 99.5093 160.626 100.002C159.766 102.031 159.965 104.32 159.875 106.52C159.867 106.981 159.813 107.44 159.713 107.89C159.49 108.79 159.028 109.748 159.252 110.648C156.939 111.531 154.37 111.476 151.92 111.103C151.441 111.059 150.976 110.918 150.553 110.688C150.206 110.442 149.903 110.139 149.657 109.792C149.562 109.691 149.492 109.569 149.452 109.436C149.356 109.015 149.821 108.698 150.037 108.329C150.253 107.96 150.292 107.376 149.995 107.073C150.142 104.659 150.81 102.302 150.957 99.88C151.016 98.9209 150.992 97.9582 151.037 96.9972C151.081 96.0363 151.184 95.1012 151.291 94.1568C151.535 92.0007 152.125 89.887 152.042 87.7199C152.017 87.0529 152.17 86.3913 152.486 85.8035C152.753 85.3569 153.055 84.9325 153.39 84.5346C154.523 83.072 155.884 81.6057 156.288 79.8C156.496 78.8686 156.957 78.0164 157.415 77.1791C157.686 76.6792 157.968 76.1683 158.4 75.8013C158.634 75.6389 158.852 75.4535 159.051 75.248C159.353 74.8588 159.364 74.3258 159.543 73.861C159.635 73.6212 159.777 73.3999 159.846 73.1527C159.902 72.8797 159.93 72.6015 159.929 72.3228C159.988 71.4301 160.331 70.5669 160.692 69.7498C159.842 69.2576 159.091 68.6108 158.479 67.8427C158.273 67.5933 158.094 67.3232 157.944 67.0367C157.564 66.2879 157.477 65.4339 157.298 64.6131C156.872 62.6544 155.893 60.8118 155.756 58.8106C155.716 58.2002 155.757 57.5694 155.544 56.9921C155.447 56.7478 155.332 56.5105 155.201 56.282C155.073 56.0575 154.975 55.8168 154.91 55.5663C154.792 55.0222 154.954 54.4597 154.91 53.9064C154.866 53.4176 154.657 52.9602 154.554 52.4825C154.449 51.861 154.43 51.2277 154.5 50.6012C154.547 49.8634 154.707 49.1017 154.644 48.3732C154.543 47.1676 154.696 45.9542 155.095 44.812C155.494 43.6698 156.129 42.6246 156.959 41.7444L157.001 41.7019C157.354 41.3331 157.739 41.0066 158.056 40.6156C158.488 40.0918 158.794 39.4757 159.25 38.9667C159.449 38.7398 159.674 38.5369 159.871 38.3082C160.052 38.0684 160.253 37.8438 160.471 37.6369C160.581 37.5345 160.715 37.4606 160.86 37.4217C161.005 37.3828 161.158 37.3801 161.304 37.4137C161.341 37.6888 161.428 37.9549 161.559 38.1994C161.943 38.2289 162.284 38.2824 162.666 38.3119C162.843 38.3203 163.018 38.3475 163.189 38.3931C163.549 38.5019 163.837 38.762 164.145 38.9851C164.912 39.5255 165.855 39.7764 166.609 40.3334C167.716 41.1542 168.269 42.5098 168.937 43.7253C169.82 45.3539 171.261 46.739 171.888 48.4801L172.753 50.8483C173.319 52.394 173.885 53.9451 174.652 55.4022C175.72 57.431 177.166 59.2588 178.024 61.3818C178.11 61.5947 178.269 61.77 178.472 61.876C179.64 63.5139 180.678 65.2406 181.576 67.0404C182.05 67.9921 182.499 68.9807 182.635 70.0339C182.836 71.5223 182.43 73.0273 181.866 74.418C181.775 74.6171 181.713 74.8283 181.681 75.0451C181.645 75.3974 181.779 75.7441 181.816 76.0964C181.852 76.4254 181.803 76.758 181.674 77.0629C181.559 77.2771 181.463 77.5004 181.385 77.7306C181.285 78.1548 181.462 78.5864 181.558 79.0106C181.883 80.4474 181.823 81.9358 181.742 83.4076C181.7 84.1454 182.296 84.7301 182.792 85.2705C183.714 86.2831 184.433 87.4672 185.129 88.6494C185.507 89.2491 185.825 89.8841 186.08 90.5455C186.344 91.2998 186.449 92.0985 186.595 92.8824C187.063 95.3004 188.598 97.438 189.015 99.8634C189.208 100.975 189.7 102.012 190.439 102.864C190.661 103.095 190.867 103.341 191.053 103.602C191.18 103.809 191.282 104.031 191.355 104.262C191.537 104.801 191.622 105.367 191.608 105.935C191.579 106.207 191.594 106.482 191.654 106.749C191.828 107.311 192.447 107.621 192.702 108.15C192.956 108.68 192.781 109.358 192.886 109.96C192.966 110.445 193.226 110.883 193.615 111.184Z" fill="#6C63FF"/>
<path d="M137.805 60.406C137.2 60.7159 136.556 61.0331 135.879 60.9888C135.271 60.9501 134.716 60.62 134.258 60.216C133.889 59.8951 133.509 59.4949 133.024 59.5281C132.7 59.5502 132.427 59.7697 132.176 59.9781L130.839 61.0977C130.614 61.2489 130.443 61.4689 130.353 61.7247C130.327 61.8984 130.338 62.0757 130.385 62.2449C130.446 62.5437 130.547 62.8923 130.835 62.9937C131.123 63.0951 131.436 62.8775 131.74 62.7945C131.926 62.747 132.122 62.7505 132.306 62.8047C132.49 62.8589 132.656 62.9618 132.786 63.1025C132.895 63.2094 132.961 63.3525 132.971 63.5046C132.971 63.8384 132.602 64.0579 132.262 64.0745C131.923 64.0911 131.598 63.9805 131.263 64.0007C131.243 63.9982 131.222 63.9997 131.202 64.0052C131.183 64.0107 131.164 64.0201 131.148 64.0328C131.132 64.0455 131.119 64.0613 131.109 64.0793C131.099 64.0972 131.093 64.1169 131.091 64.1372C131.07 64.2537 131.079 64.3736 131.117 64.4858C131.155 64.598 131.22 64.6988 131.307 64.7791C131.482 64.939 131.686 65.0642 131.908 65.148C132.166 65.2755 132.445 65.3567 132.731 65.3877C133.297 65.4246 133.817 65.1111 134.354 64.9285C135.077 64.685 135.855 64.6776 136.619 64.6795C137.383 64.6813 138.157 64.6924 138.889 64.4784C139.622 64.2645 140.317 63.7905 140.603 63.0841C140.637 63.0182 140.648 62.9429 140.634 62.8701C140.606 62.7924 140.551 62.7272 140.479 62.6857C139.45 61.9239 139.033 60.9981 137.875 60.4503L137.805 60.406Z" fill="#FBBEBE"/>
<path d="M152.235 32.8192C151.916 32.8709 151.645 33.0867 151.343 33.2066C151.14 33.2854 150.922 33.3203 150.705 33.3089C150.487 33.2974 150.275 33.2399 150.081 33.1402C149.946 33.0746 149.828 32.9786 149.736 32.8598C149.489 32.5168 149.576 32.0188 149.727 31.6167C150.443 29.7151 152.353 28.5384 154.246 28.4628C156.138 28.3871 157.979 29.2706 159.471 30.534C159.915 30.8986 160.313 31.3154 160.657 31.7753C161.435 32.8543 161.788 34.2321 161.891 35.5969C161.953 36.1697 161.915 36.7488 161.778 37.3085C161.713 37.5805 161.593 37.8365 161.426 38.0612C161.26 38.2859 161.049 38.4747 160.808 38.6162C160.281 38.8855 159.648 38.8007 159.115 38.5424C158.582 38.2842 158.125 37.8766 157.667 37.4874C157.46 37.2876 157.215 37.1315 156.946 37.0282C156.812 36.9804 156.667 36.9725 156.529 37.0052C156.39 37.0379 156.264 37.1099 156.166 37.2126C155.919 37.5096 155.981 37.9965 155.756 38.3193C155.531 38.642 155.063 38.6881 154.668 38.6881C154.273 38.6881 153.873 38.6549 153.637 38.3414C153.421 38.0574 153.453 37.6424 153.534 37.2845C153.615 36.9267 153.753 36.5726 153.718 36.2056C153.643 35.4678 152.997 35.0141 152.796 34.3353C152.665 33.8908 152.953 33.7027 152.923 33.3006C152.901 32.9465 152.521 32.7731 152.235 32.8192Z" fill="#3F3D56"/>
<path opacity="0.1" d="M169.04 83.6916V83.7377C167.981 85.7942 166.902 87.8839 165.301 89.5568C165.05 89.7984 164.819 90.0612 164.613 90.3425C164.448 90.6157 164.3 90.8991 164.171 91.191C163.922 91.7144 163.592 92.195 163.193 92.6149L161.858 93.2825L166.1 71.1497L169.04 83.6916Z" fill="black"/>
<path opacity="0.1" d="M162.874 50.1936C162.51 50.5855 162.106 50.939 161.67 51.2486C160.452 52.1708 159.272 53.0413 158.09 54.0152C157.137 54.791 156.17 55.5509 155.19 56.2949C155.062 56.0703 154.964 55.8297 154.899 55.5792C154.781 55.0351 154.943 54.4726 154.899 53.9193C154.854 53.4305 154.646 52.9731 154.543 52.4954C154.437 51.8738 154.419 51.2406 154.489 50.6141C154.535 49.8763 154.696 49.1146 154.633 48.386C154.531 47.1776 154.686 45.9612 155.086 44.8167C155.487 43.6721 156.125 42.6251 156.959 41.7443L157.001 41.7019C157.2 41.5865 157.41 41.4925 157.628 41.4216C157.95 41.3088 158.293 41.2714 158.632 41.3124C158.97 41.3533 159.294 41.4714 159.58 41.6577C160.583 42.3971 161.477 43.2738 162.236 44.262C162.653 44.7322 163.027 45.2389 163.353 45.7762C163.718 46.4778 163.867 47.2714 163.782 48.0574C163.696 48.8433 163.38 49.5865 162.874 50.1936Z" fill="black"/>
<path d="M159.403 40.7355C159.117 40.5508 158.792 40.4343 158.453 40.395C158.115 40.3557 157.772 40.3946 157.451 40.5087C156.809 40.7401 156.232 41.1244 155.771 41.6282C155.311 42.0976 154.912 42.6238 154.585 43.1941C154.272 43.7475 154.032 44.3266 153.718 44.8781C153.165 45.8648 152.442 46.7354 151.715 47.5986C151.263 48.1353 150.806 48.6794 150.227 49.0741C149.648 49.4688 149 49.7104 148.607 50.2582C148.484 50.4316 148.395 50.6271 148.274 50.8023C147.888 51.3667 147.233 51.6692 146.663 52.0473C145.029 53.1355 144.013 54.9467 142.486 56.1806C141.827 56.7118 141.084 57.1286 140.437 57.6709C139.834 58.1744 139.33 58.7775 138.729 59.294C138.127 59.8104 137.421 60.2364 136.637 60.2844C137.161 61.4519 137.786 62.5973 138.684 63.5066C139.583 64.4159 140.929 64.9969 142.156 64.6409C142.591 64.5155 143.017 64.2499 143.183 63.8293C143.235 63.6132 143.308 63.4026 143.401 63.2004C143.524 63.0381 143.684 62.9073 143.867 62.8186C148.791 59.9446 153.484 56.693 157.905 53.0931C159.091 52.1266 160.268 51.2616 161.485 50.3265C161.922 50.0169 162.325 49.6634 162.689 49.2715C163.197 48.6652 163.514 47.9224 163.601 47.1364C163.687 46.3504 163.54 45.5564 163.176 44.8541C162.85 44.3168 162.476 43.81 162.059 43.3398C161.3 42.3517 160.406 41.475 159.403 40.7355Z" fill="#6C63FF"/>
<g opacity="0.1">
<path d="M155.037 37.9448C154.668 37.9448 154.242 37.9116 154.006 37.598C153.792 37.314 153.822 36.899 153.903 36.5412C153.984 36.1834 154.122 35.8292 154.087 35.4622C154.012 34.7244 153.366 34.2707 153.165 33.592C153.034 33.1475 153.322 32.9593 153.292 32.5573C153.267 32.2087 152.888 32.0353 152.603 32.0814C152.283 32.133 152.012 32.3488 151.71 32.4687C151.507 32.5476 151.289 32.5825 151.072 32.571C150.854 32.5596 150.642 32.5021 150.448 32.4023C150.313 32.3367 150.195 32.2408 150.103 32.122C149.856 31.7789 149.943 31.2809 150.094 30.8788C150.094 30.8641 150.107 30.8512 150.113 30.8364C149.958 31.0832 149.829 31.3445 149.725 31.6166C149.574 32.0187 149.487 32.5167 149.734 32.8597C149.826 32.9785 149.944 33.0745 150.079 33.1401C150.273 33.2398 150.486 33.2973 150.703 33.3088C150.921 33.3202 151.138 33.2854 151.341 33.2065C151.643 33.0866 151.915 32.8708 152.234 32.8192C152.52 32.7731 152.898 32.9464 152.923 33.295C152.953 33.6971 152.665 33.8852 152.796 34.3297C152.994 35.0085 153.639 35.4696 153.718 36.2C153.755 36.5688 153.621 36.923 153.534 37.2789C153.447 37.6349 153.423 38.0517 153.637 38.3358C153.873 38.6493 154.296 38.6788 154.668 38.6825C155.041 38.6862 155.52 38.6604 155.756 38.3136C155.858 38.1395 155.925 37.9472 155.954 37.7474C155.703 37.9263 155.353 37.9485 155.037 37.9448Z" fill="black"/>
<path d="M161.177 37.8785C160.65 38.1478 160.017 38.0629 159.484 37.8047C158.951 37.5465 158.494 37.1389 158.036 36.7497C157.829 36.5499 157.584 36.3937 157.315 36.2905C157.181 36.2427 157.036 36.2347 156.898 36.2675C156.759 36.3002 156.633 36.3722 156.535 36.4749C156.409 36.6601 156.33 36.8726 156.304 37.0946C156.4 37.0381 156.507 37.0028 156.618 36.991C156.728 36.9792 156.84 36.9913 156.946 37.0264C157.215 37.1297 157.46 37.2858 157.667 37.4856C158.125 37.8748 158.589 38.2843 159.115 38.5406C159.641 38.797 160.281 38.8837 160.808 38.6144C161.275 38.3414 161.615 37.8953 161.754 37.3731C161.603 37.5832 161.405 37.7561 161.177 37.8785Z" fill="black"/>
</g>
<path d="M115.275 117.168C118.331 117.168 120.809 114.69 120.809 111.634C120.809 108.578 118.331 106.101 115.275 106.101C112.219 106.101 109.742 108.578 109.742 111.634C109.742 114.69 112.219 117.168 115.275 117.168Z" fill="#3F3D56"/>
<path opacity="0.1" d="M115.275 117.168C118.331 117.168 120.809 114.69 120.809 111.634C120.809 108.578 118.331 106.101 115.275 106.101C112.219 106.101 109.742 108.578 109.742 111.634C109.742 114.69 112.219 117.168 115.275 117.168Z" fill="black"/>
<path d="M115.275 115.139C117.211 115.139 118.78 113.57 118.78 111.634C118.78 109.699 117.211 108.13 115.275 108.13C113.34 108.13 111.771 109.699 111.771 111.634C111.771 113.57 113.34 115.139 115.275 115.139Z" fill="#65617D"/>
<path opacity="0.1" d="M115.275 115.139C117.211 115.139 118.78 113.57 118.78 111.634C118.78 109.699 117.211 108.13 115.275 108.13C113.34 108.13 111.771 109.699 111.771 111.634C111.771 113.57 113.34 115.139 115.275 115.139Z" fill="black"/>
<path d="M111.033 102.966L114.663 111.173C114.717 111.296 114.805 111.401 114.917 111.476C115.029 111.551 115.159 111.592 115.294 111.594C115.428 111.597 115.561 111.561 115.675 111.491C115.79 111.421 115.882 111.32 115.941 111.199L120.255 102.412L111.033 102.966Z" fill="#3F3D56"/>
<path opacity="0.1" d="M111.033 102.966L114.663 111.173C114.717 111.296 114.805 111.401 114.917 111.476C115.029 111.551 115.159 111.592 115.294 111.594C115.428 111.597 115.561 111.561 115.675 111.491C115.79 111.421 115.882 111.32 115.941 111.199L120.255 102.412L111.033 102.966Z" fill="black"/>
<path d="M80.7849 117.168C83.8408 117.168 86.3181 114.69 86.3181 111.634C86.3181 108.578 83.8408 106.101 80.7849 106.101C77.729 106.101 75.2517 108.578 75.2517 111.634C75.2517 114.69 77.729 117.168 80.7849 117.168Z" fill="#3F3D56"/>
<path opacity="0.1" d="M80.7849 117.168C83.8408 117.168 86.3181 114.69 86.3181 111.634C86.3181 108.578 83.8408 106.101 80.7849 106.101C77.729 106.101 75.2517 108.578 75.2517 111.634C75.2517 114.69 77.729 117.168 80.7849 117.168Z" fill="black"/>
<path d="M80.7851 115.139C82.7205 115.139 84.2895 113.57 84.2895 111.634C84.2895 109.699 82.7205 108.13 80.7851 108.13C78.8497 108.13 77.2808 109.699 77.2808 111.634C77.2808 113.57 78.8497 115.139 80.7851 115.139Z" fill="#65617D"/>
<path opacity="0.1" d="M80.7851 115.139C82.7205 115.139 84.2895 113.57 84.2895 111.634C84.2895 109.699 82.7205 108.13 80.7851 108.13C78.8497 108.13 77.2808 109.699 77.2808 111.634C77.2808 113.57 78.8497 115.139 80.7851 115.139Z" fill="black"/>
<path d="M76.5427 102.966L80.1725 111.173C80.2266 111.296 80.3147 111.401 80.4264 111.476C80.5382 111.551 80.669 111.592 80.8034 111.594C80.9377 111.597 81.07 111.561 81.1847 111.491C81.2994 111.421 81.3917 111.32 81.4507 111.199L85.7648 102.412L76.5427 102.966Z" fill="#3F3D56"/>
<path opacity="0.1" d="M76.5427 102.966L80.1725 111.173C80.2266 111.296 80.3147 111.401 80.4264 111.476C80.5382 111.551 80.669 111.592 80.8034 111.594C80.9377 111.597 81.07 111.561 81.1847 111.491C81.2994 111.421 81.3917 111.32 81.4507 111.199L85.7648 102.412L76.5427 102.966Z" fill="black"/>
<path d="M133.232 63.4492C133.217 63.3095 133.167 63.1758 133.087 63.0604C133.007 62.9451 132.899 62.8517 132.773 62.7889C132.667 62.7438 132.553 62.7204 132.438 62.7202C132.323 62.72 132.209 62.743 132.103 62.7877C131.997 62.8325 131.901 62.8981 131.821 62.9807C131.741 63.0633 131.678 63.1611 131.637 63.2684L128.463 71.1496L127.541 106.562H129.016L129.569 71.2252L133.155 63.9841C133.236 63.8184 133.264 63.6312 133.232 63.4492Z" fill="#3F3D56"/>
<path d="M67.9663 103.796L72.9462 100.66L126.711 100.199L128.094 103.796H67.9663Z" fill="#6C63FF"/>
<path d="M67.9663 107.116V103.796L129.068 103.206L129.009 105.456H69.073V107.116H67.9663Z" fill="#3F3D56"/>
<path d="M75.7129 119.104C78.7688 119.104 81.2461 116.627 81.2461 113.571C81.2461 110.515 78.7688 108.038 75.7129 108.038C72.657 108.038 70.1797 110.515 70.1797 113.571C70.1797 116.627 72.657 119.104 75.7129 119.104Z" fill="#3F3D56"/>
<path d="M75.7129 117.075C77.6483 117.075 79.2172 115.506 79.2172 113.571C79.2172 111.636 77.6483 110.067 75.7129 110.067C73.7775 110.067 72.2085 111.636 72.2085 113.571C72.2085 115.506 73.7775 117.075 75.7129 117.075Z" fill="#65617D"/>
<path d="M71.4707 104.902L75.1005 113.11C75.1545 113.233 75.2426 113.338 75.3544 113.412C75.4662 113.487 75.597 113.528 75.7313 113.531C75.8657 113.534 75.998 113.498 76.1127 113.428C76.2274 113.358 76.3197 113.256 76.3787 113.136L80.6927 104.349L71.4707 104.902Z" fill="#3F3D56"/>
<path d="M118.688 119.104C121.743 119.104 124.221 116.627 124.221 113.571C124.221 110.515 121.743 108.038 118.688 108.038C115.632 108.038 113.154 110.515 113.154 113.571C113.154 116.627 115.632 119.104 118.688 119.104Z" fill="#3F3D56"/>
<path d="M118.687 117.075C120.623 117.075 122.192 115.506 122.192 113.571C122.192 111.636 120.623 110.067 118.687 110.067C116.752 110.067 115.183 111.636 115.183 113.571C115.183 115.506 116.752 117.075 118.687 117.075Z" fill="#65617D"/>
<path d="M114.445 104.902L118.075 113.11C118.129 113.233 118.217 113.338 118.329 113.412C118.441 113.487 118.572 113.528 118.706 113.531C118.84 113.534 118.973 113.498 119.087 113.428C119.202 113.358 119.294 113.256 119.353 113.136L123.667 104.349L114.445 104.902Z" fill="#3F3D56"/>
<path d="M97.9381 89.3171H74.8831V102.044H97.9381V89.3171Z" fill="#65617D"/>
<path opacity="0.1" d="M90.007 91.5305H82.9983V93.006H90.007V91.5305Z" fill="black"/>
<path opacity="0.1" d="M89.1311 91.7148H83.8745V92.8215H89.1311V91.7148Z" fill="black"/>
<path d="M121.362 89.3171H98.3069V102.044H121.362V89.3171Z" fill="#65617D"/>
<path opacity="0.1" d="M113.431 91.5305H106.422V93.006H113.431V91.5305Z" fill="black"/>
<path opacity="0.1" d="M112.555 91.7148H107.298V92.8215H112.555V91.7148Z" fill="black"/>
<path d="M97.9381 76.2218H74.8831V88.9482H97.9381V76.2218Z" fill="#65617D"/>
<path opacity="0.1" d="M90.007 78.4351H82.9983V79.9106H90.007V78.4351Z" fill="black"/>
<path opacity="0.1" d="M89.1311 78.6195H83.8745V79.7262H89.1311V78.6195Z" fill="black"/>
<path d="M121.362 76.2218H98.3069V88.9482H121.362V76.2218Z" fill="#65617D"/>
<path opacity="0.1" d="M113.431 78.4351H106.422V79.9106H113.431V78.4351Z" fill="black"/>
<path opacity="0.1" d="M112.555 78.6195H107.298V79.7262H112.555V78.6195Z" fill="black"/>
<path d="M97.9381 62.942H74.8831V75.6684H97.9381V62.942Z" fill="#65617D"/>
<path opacity="0.1" d="M90.007 65.1554H82.9983V66.6309H90.007V65.1554Z" fill="black"/>
<path opacity="0.1" d="M89.1311 65.3398H83.8745V66.4465H89.1311V65.3398Z" fill="black"/>
<path d="M121.362 62.942H98.3069V75.6684H121.362V62.942Z" fill="#65617D"/>
<path opacity="0.1" d="M113.431 65.1554H106.422V66.6309H113.431V65.1554Z" fill="black"/>
<path opacity="0.1" d="M112.555 65.3398H107.298V66.4465H112.555V65.3398Z" fill="black"/>
<path d="M121.362 49.6624H98.3069V62.3888H121.362V49.6624Z" fill="#65617D"/>
<path opacity="0.1" d="M113.431 51.8756H106.422V53.3511H113.431V51.8756Z" fill="black"/>
<path opacity="0.1" d="M112.555 52.0601H107.298V53.1667H112.555V52.0601Z" fill="black"/>
</g>
<defs>
<linearGradient id="paint0_linear_249_570" x1="161.907" y1="117.009" x2="161.907" y2="27.8984" gradientUnits="userSpaceOnUse">
<stop stop-color="#808080" stop-opacity="0.25"/>
<stop offset="0.54" stop-color="#808080" stop-opacity="0.12"/>
<stop offset="1" stop-color="#808080" stop-opacity="0.1"/>
</linearGradient>
<clipPath id="clip0_249_570">
<rect width="211" height="120.119" fill="white"/>
</clipPath>
</defs>
</svg>
