<svg width="106" height="93" viewBox="0 0 106 93" fill="none" xmlns="http://www.w3.org/2000/svg">
<g clip-path="url(#clip0_249_684)">
<path d="M70.5857 92.7114L70.5632 92.7091L35.4144 89.1739L3.4524 92.3886C2.61788 92.4725 1.78675 92.1941 1.14185 91.6145C0.496944 91.035 0.0910907 90.2018 0.0135716 89.2983C0.00454909 89.1931 3.42055e-05 89.0876 2.63658e-05 88.9819V6.68021C-0.00319972 5.82659 0.289734 5.00277 0.820831 4.37187C1.35193 3.74096 2.08247 3.34897 2.86781 3.2735L35.4144 0L35.4369 0.0023119L70.5857 3.53746L102.548 0.322813C103.382 0.238878 104.213 0.517306 104.858 1.09685C105.503 1.67639 105.909 2.50956 105.986 3.41309C105.995 3.51828 106 3.62376 106 3.72952V86.0311C106.003 86.8847 105.71 87.7086 105.179 88.3395C104.648 88.9704 103.918 89.3624 103.132 89.4379L70.5857 92.7114Z" fill="#3F3D56"/>
<path d="M48.9964 30.4476C42.1925 25.0826 35.0337 19.9952 27.7206 15.3276L27.3536 15.0934V30.924H49.6005L48.9964 30.4476ZM27.8397 30.3976V16.0158C34.7968 20.4716 41.6091 25.3063 48.1056 30.3976L27.8397 30.3976ZM83.4303 62.9814C80.4878 59.6692 77.4691 56.4324 74.3743 53.2711C73.5211 52.3987 72.6626 51.5332 71.7989 50.6748C66.5276 45.4321 61.0829 40.4461 55.4649 35.7166L55.3993 35.6614H27.3536V63.4275H83.8266L83.4303 62.9814ZM27.8397 62.9011V36.1877H55.2327C60.6499 40.7501 65.9203 45.5677 71.0441 50.6406C71.9338 51.5209 72.8174 52.4083 73.6949 53.3027C76.7626 56.4241 79.7586 59.6236 82.6829 62.9011H27.8397ZM83.4303 62.9814C80.4878 59.6692 77.4691 56.4324 74.3743 53.2711C73.5211 52.3987 72.6626 51.5332 71.7989 50.6748C66.5276 45.4321 61.0829 40.4461 55.4649 35.7166L55.3993 35.6614H27.3536V63.4275H83.8266L83.4303 62.9814ZM27.8397 62.9011V36.1877H55.2327C60.6499 40.7501 65.9203 45.5677 71.0441 50.6406C71.9338 51.5209 72.8174 52.4083 73.6949 53.3027C76.7626 56.4241 79.7586 59.6236 82.6829 62.9011H27.8397ZM48.9964 30.4476C42.1925 25.0826 35.0337 19.9952 27.7206 15.3276L27.3536 15.0934V30.924H49.6005L48.9964 30.4476ZM27.8397 30.3976V16.0158C34.7968 20.4716 41.6091 25.3063 48.1056 30.3976L27.8397 30.3976ZM48.9964 30.4476C42.1925 25.0826 35.0337 19.9952 27.7206 15.3276L27.3536 15.0934V30.924H49.6005L48.9964 30.4476ZM27.8397 30.3976V16.0158C34.7968 20.4716 41.6091 25.3063 48.1056 30.3976L27.8397 30.3976ZM83.4303 62.9814C80.4878 59.6692 77.4691 56.4324 74.3743 53.2711C73.5211 52.3987 72.6626 51.5332 71.7989 50.6748C66.5276 45.4321 61.0829 40.4461 55.4649 35.7166L55.3993 35.6614H27.3536V63.4275H83.8266L83.4303 62.9814ZM27.8397 62.9011V36.1877H55.2327C60.6499 40.7501 65.9203 45.5677 71.0441 50.6406C71.9338 51.5209 72.8174 52.4083 73.6949 53.3027C76.7626 56.4241 79.7586 59.6236 82.6829 62.9011H27.8397ZM3.29077 68.1648V68.6912H22.4919V76.3236H3.29077V76.85H22.9781V68.1648H3.29077ZM27.3536 81.5873V86.9208L27.8397 86.8721V82.1137H102.709V81.5873L27.3536 81.5873ZM102.709 68.6912V68.1648H27.3536V76.85H102.709V76.3236H27.8397V68.6912L102.709 68.6912ZM57.3075 30.3976C47.9806 22.6079 38.1307 15.5811 27.8397 9.37566V4.04614L27.3535 4.09483V9.4656L27.7279 9.91124C37.977 16.0998 47.7869 23.105 57.0765 30.8687L57.1421 30.924H102.709V30.3976L57.3075 30.3976ZM22.4919 30.3976H3.29077V30.924H22.9781V4.53435L22.4919 4.58304L22.4919 30.3976ZM102.709 35.6614H62.6504L63.1743 36.1272C68.1064 40.5211 72.949 45.1812 77.7021 50.1076C78.3779 50.8077 79.0512 51.5135 79.7221 52.225C83.0621 55.7582 86.3368 59.4069 89.5463 63.1709L89.9471 63.4275H102.709V62.9011H89.9778C86.8031 59.1744 83.5596 55.5556 80.2472 52.0447C79.5848 51.342 78.92 50.6441 78.2527 49.951C73.6025 45.1203 68.853 40.5325 64.0043 36.1877H102.709V35.6614ZM3.29077 81.5873V82.1137H22.4919V87.409L22.9781 87.3603V81.5873H3.29077ZM3.29077 35.6614V36.1877H22.4919V62.9011H3.29077V63.4275H22.9781V35.6614H3.29077ZM48.9964 30.4476C42.1925 25.0826 35.0337 19.9952 27.7206 15.3276L27.3536 15.0934V30.924H49.6005L48.9964 30.4476ZM27.8397 30.3976V16.0158C34.7968 20.4716 41.6091 25.3063 48.1056 30.3976L27.8397 30.3976ZM83.4303 62.9814C80.4878 59.6692 77.4691 56.4324 74.3743 53.2711C73.5211 52.3987 72.6626 51.5332 71.7989 50.6748C66.5276 45.4321 61.0829 40.4461 55.4649 35.7166L55.3993 35.6614H27.3536V63.4275H83.8266L83.4303 62.9814ZM27.8397 62.9011V36.1877H55.2327C60.6499 40.7501 65.9203 45.5677 71.0441 50.6406C71.9338 51.5209 72.8174 52.4083 73.6949 53.3027C76.7626 56.4241 79.7586 59.6236 82.6829 62.9011H27.8397ZM48.9964 30.4476C42.1925 25.0826 35.0337 19.9952 27.7206 15.3276L27.3536 15.0934V30.924H49.6005L48.9964 30.4476ZM27.8397 30.3976V16.0158C34.7968 20.4716 41.6091 25.3063 48.1056 30.3976L27.8397 30.3976ZM83.4303 62.9814C80.4878 59.6692 77.4691 56.4324 74.3743 53.2711C73.5211 52.3987 72.6626 51.5332 71.7989 50.6748C66.5276 45.4321 61.0829 40.4461 55.4649 35.7166L55.3993 35.6614H27.3536V63.4275H83.8266L83.4303 62.9814ZM27.8397 62.9011V36.1877H55.2327C60.6499 40.7501 65.9203 45.5677 71.0441 50.6406C71.9338 51.5209 72.8174 52.4083 73.6949 53.3027C76.7626 56.4241 79.7586 59.6236 82.6829 62.9011H27.8397Z" fill="white"/>
<path d="M54.2906 34.6386C54.2906 41.3041 43.1436 56.1527 43.1436 56.1527C43.1436 56.1527 31.9966 41.3041 31.9966 34.6386C31.9966 31.4377 33.171 28.368 35.2615 26.1046C37.3519 23.8412 40.1872 22.5697 43.1436 22.5697C46.1 22.5697 48.9353 23.8412 51.0258 26.1046C53.1162 28.368 54.2906 31.4377 54.2906 34.6386Z" fill="#6C63FF"/>
<path d="M48.2394 34.1139C48.2394 35.2051 47.9406 36.2718 47.3806 37.1791C46.8207 38.0864 46.0248 38.7935 45.0937 39.2111C44.1626 39.6287 43.138 39.738 42.1495 39.5251C41.161 39.3122 40.253 38.7867 39.5404 38.0151C38.8277 37.2436 38.3424 36.2605 38.1458 35.1902C37.9491 34.12 38.0501 33.0107 38.4357 32.0025C38.8214 30.9944 39.4746 30.1327 40.3126 29.5265C41.1506 28.9203 42.1358 28.5967 43.1436 28.5967C43.8129 28.5963 44.4757 28.7388 45.0941 29.016C45.7125 29.2931 46.2743 29.6995 46.7476 30.2119C47.2208 30.7243 47.5962 31.3326 47.8522 32.0022C48.1081 32.6717 48.2397 33.3893 48.2394 34.1139Z" fill="white"/>
<path d="M43.1435 64.8634C44.8031 64.8634 46.1484 63.4068 46.1484 61.61C46.1484 59.8133 44.8031 58.3567 43.1435 58.3567C41.484 58.3567 40.1387 59.8133 40.1387 61.61C40.1387 63.4068 41.484 64.8634 43.1435 64.8634Z" fill="#6C63FF"/>
<path d="M71.9341 20.7686C74.3877 20.7686 76.3768 18.6151 76.3768 15.9585C76.3768 13.302 74.3877 11.1484 71.9341 11.1484C69.4805 11.1484 67.4915 13.302 67.4915 15.9585C67.4915 18.6151 69.4805 20.7686 71.9341 20.7686Z" fill="#FF6584"/>
<path d="M85.8658 30.7815H64.0714C64.0441 30.7818 64.0169 30.7795 63.99 30.7745L74.2977 11.4434C74.3606 11.323 74.4519 11.2228 74.5623 11.1532C74.6727 11.0835 74.7981 11.0468 74.9259 11.0468C75.0537 11.0468 75.1791 11.0835 75.2895 11.1532C75.3998 11.2228 75.4911 11.323 75.5541 11.4434L82.4718 24.416L82.8033 25.0368L85.8658 30.7815Z" fill="white"/>
<path opacity="0.2" d="M85.866 30.7814H78.4248L82.0776 25.0367L82.3405 24.6229L82.472 24.416L82.8034 25.0367L85.866 30.7814Z" fill="black"/>
<path d="M98.0007 30.7815H79.1504L82.8032 25.0368L83.0661 24.623L87.8261 17.1366C88.1381 16.6459 88.8888 16.6154 89.2557 17.044C89.2804 17.0733 89.3033 17.1042 89.3243 17.1366L98.0007 30.7815Z" fill="white"/>
<path d="M99.3996 58.0318C100.641 58.0318 101.648 56.9418 101.648 55.5973C101.648 54.2528 100.641 53.1628 99.3996 53.1628C98.1578 53.1628 97.1511 54.2528 97.1511 55.5973C97.1511 56.9418 98.1578 58.0318 99.3996 58.0318Z" fill="white"/>
<path d="M99.6163 62.93H99.1558L99.3657 55.2306L99.6163 62.93Z" fill="#CBCBCB"/>
<path d="M99.4063 56.6899L99.9008 55.9492L99.3996 56.8733L99.3455 56.7706L99.4063 56.6899Z" fill="#CBCBCB"/>
<path d="M99.3522 57.4377L98.8577 56.6971L99.3589 57.621L99.413 57.5184L99.3522 57.4377Z" fill="#CBCBCB"/>
<path d="M93.0062 55.6958C94.8402 55.6958 96.327 54.086 96.327 52.1003C96.327 50.1145 94.8402 48.5048 93.0062 48.5048C91.1721 48.5048 89.6853 50.1145 89.6853 52.1003C89.6853 54.086 91.1721 55.6958 93.0062 55.6958Z" fill="white"/>
<path d="M93.3261 62.93H92.646L92.9562 51.5586L93.3261 62.93Z" fill="#CBCBCB"/>
<path d="M93.0162 53.7137L93.7464 52.62L93.0062 53.9846L92.9263 53.8329L93.0162 53.7137Z" fill="#CBCBCB"/>
<path d="M92.9363 54.8184L92.2061 53.7247L92.9463 55.0891L93.0263 54.9376L92.9363 54.8184Z" fill="#CBCBCB"/>
<path d="M15.9062 58.0318C17.148 58.0318 18.1547 56.9418 18.1547 55.5973C18.1547 54.2528 17.148 53.1628 15.9062 53.1628C14.6644 53.1628 13.6577 54.2528 13.6577 55.5973C13.6577 56.9418 14.6644 58.0318 15.9062 58.0318Z" fill="white"/>
<path d="M16.1231 62.93H15.6626L15.8725 55.2306L16.1231 62.93Z" fill="#CBCBCB"/>
<path d="M15.9129 56.6899L16.4074 55.9492L15.9061 56.8733L15.8521 56.7706L15.9129 56.6899Z" fill="#CBCBCB"/>
<path d="M15.859 57.4377L15.3645 56.6971L15.8658 57.621L15.9198 57.5184L15.859 57.4377Z" fill="#CBCBCB"/>
<path d="M9.51275 55.6958C11.3468 55.6958 12.8336 54.086 12.8336 52.1003C12.8336 50.1145 11.3468 48.5048 9.51275 48.5048C7.67869 48.5048 6.19189 50.1145 6.19189 52.1003C6.19189 54.086 7.67869 55.6958 9.51275 55.6958Z" fill="white"/>
<path d="M9.83298 62.93H9.15283L9.46299 51.5586L9.83298 62.93Z" fill="#CBCBCB"/>
<path d="M9.52282 53.7137L10.2529 52.62L9.51283 53.9846L9.43286 53.8329L9.52282 53.7137Z" fill="#CBCBCB"/>
<path d="M9.44292 54.8184L8.71265 53.7247L9.45291 55.0891L9.53288 54.9376L9.44292 54.8184Z" fill="#CBCBCB"/>
</g>
<defs>
<clipPath id="clip0_249_684">
<rect width="106" height="92.7114" fill="white"/>
</clipPath>
</defs>
</svg>
